#!OML:ASF E:\id_vita\Project 1\Capture day 1\Session 1\Male1.ASF
:FULLY-SPECIFIED
:DEGREES
543
root 27.3213 16.3593 0.850131 214.025 96.1777 212.709
lowerback -5.47925 -0.938159 -6.38912
upperback 0.110968 -0.760624 -1.42206
thorax 3.25948 -0.457914 2.04938
lowerneck -5.98168 0.780341 8.01006
upperneck 9.54404 0.604299 -2.97958
head 3.86546 0.454167 -2.18105
rclavicle -3.38555e-015 1.98785e-014
rhumerus -31.183 -23.542 -78.5403
rradius 13.1963
rwrist 23.9682
rhand -21.2849 34.3174
rfingers 7.12502
rthumb 5.09925 4.39871
lclavicle -3.38555e-015 1.98785e-014
lhumerus -26.6413 27.4515 75.9435
lradius 6.52502
lwrist -19.7571
lhand -13.4027 47.8684
lfingers 7.12502
lthumb 12.705 77.4619
rfemur -1.3902 2.33776 15.3419
rtibia 53.846
rfoot 15.8321 14.3324
rtoes 14.6287
lfemur -16.4587 6.5131 -28.2173
ltibia 24.8514
lfoot -15.3355 -4.69594
ltoes -5.85392
544
root 27.4294 16.3553 0.835705 216.627 96.1646 215.536
lowerback -5.29481 -1.07678 -6.67784
upperback 0.150828 -0.937389 -1.46358
thorax 3.21665 -0.549012 2.15455
lowerneck -5.98245 0.736336 7.84649
upperneck 9.58276 0.552454 -2.88811
head 3.87368 0.428184 -2.12921
rclavicle -1.07468e-015 -1.47101e-014
rhumerus -31.5093 -24.1036 -78.0792
rradius 13.137
rwrist 24.7355
rhand -21.0135 33.8463
rfingers 7.12502
rthumb 5.3613 3.93409
lclavicle -1.07468e-015 -1.47101e-014
lhumerus -25.8119 27.7722 76.1959
lradius 6.55469
lwrist -20.8603
lhand -13.1078 47.9988
lfingers 7.12502
lthumb 12.9893 77.5745
rfemur -2.11424 2.21769 15.0104
rtibia 55.435
rfoot 14.4383 14.381
rtoes 9.35032
lfemur -15.737 6.69717 -28.5258
ltibia 24.7911
lfoot -15.749 -4.84937
ltoes -6.18184
545
root 27.5334 16.3543 0.826394 216.488 96.1099 215.541
lowerback -5.22392 -1.13452 -6.70213
upperback 0.149446 -1.01849 -1.47118
thorax 3.18276 -0.588558 2.15456
lowerneck -5.84541 0.743617 8.23299
upperneck 9.60866 0.571669 -3.22858
head 3.86153 0.436269 -2.29599
rclavicle -2.04251e-014 -1.27222e-014
rhumerus -32.0192 -24.0682 -77.9384
rradius 13.335
rwrist 24.5334
rhand -20.9366 33.7139
rfingers 7.12502
rthumb 5.43559 3.80361
lclavicle -2.04251e-014 -1.27222e-014
lhumerus -25.1147 27.9488 76.3687
lradius 6.81286
lwrist -21.9852
lhand -12.7157 48.2824
lfingers 7.12502
lthumb 13.3672 77.8336
rfemur -2.95718 2.26478 15.0646
rtibia 56.8786
rfoot 12.4367 14.3298
rtoes 6.23549
lfemur -15.175 6.84299 -28.5052
ltibia 24.8388
lfoot -16.1045 -4.80983
ltoes -6.6676
546
root 27.6404 16.3546 0.817101 215.704 95.9633 214.99
lowerback -5.08944 -1.17079 -6.5936
upperback 0.211737 -1.08405 -1.44866
thorax 3.17568 -0.621352 2.11342
lowerneck -5.96825 0.703277 8.33409
upperneck 9.81364 0.518829 -3.42344
head 3.94138 0.407353 -2.37624
rclavicle -3.35263e-014 -8.34896e-015
rhumerus -32.3718 -23.8256 -77.933
rradius 13.4211
rwrist 23.9633
rhand -21.3005 33.9253
rfingers 7.12502
rthumb 5.08418 4.00627
lclavicle -3.35263e-014 -8.34896e-015
lhumerus -24.3508 28.088 76.6799
lradius 7.03241
lwrist -23.0505
lhand -12.8619 48.1777
lfingers 7.12502
lthumb 13.2263 77.7381
rfemur -3.65302 2.1624 15.2147
rtibia 58.2042
rfoot 10.1472 13.7906
rtoes 0.583794
lfemur -14.5102 7.05582 -28.3623
ltibia 24.9131
lfoot -16.6435 -4.78778
ltoes -6.83921
547
root 27.7475 16.3475 0.803158 217.198 95.8123 216.733
lowerback -4.91711 -1.24776 -6.6353
upperback 0.279025 -1.19494 -1.46453
thorax 3.15883 -0.677976 2.11339
lowerneck -6.14716 0.55139 8.02114
upperneck 9.97572 0.323119 -3.34189
head 4.0076 0.305122 -2.3114
rclavicle 1.78596e-014 1.35174e-014
rhumerus -32.6069 -24.0872 -77.6223
rradius 13.2476
rwrist 23.9398
rhand -21.469 34.1373
rfingers 7.12502
rthumb 4.92153 4.21446
lclavicle 1.78596e-014 1.35174e-014
lhumerus -23.6362 28.2042 76.9962
lradius 7.28782
lwrist -24.1635
lhand -13.2783 47.2601
lfingers 7.12502
lthumb 12.8249 76.8462
rfemur -4.23522 1.81033 15.1108
rtibia 59.3881
rfoot 7.60097 12.6966
rtoes 1.71267
lfemur -13.8845 7.17958 -28.4394
ltibia 25.0853
lfoot -17.9057 -4.99963
ltoes 1.54309
548
root 27.8399 16.3341 0.777297 224.132 96.0036 223.522
lowerback -4.98861 -1.44274 -7.17327
upperback 0.20902 -1.40645 -1.65793
thorax 3.15455 -0.785257 2.19494
lowerneck -6.06791 0.639705 8.06642
upperneck 9.96718 0.443966 -3.33401
head 3.99908 0.367504 -2.3099
rclavicle -2.92276e-014 -3.10104e-014
rhumerus -32.7144 -24.0029 -77.5603
rradius 13.2129
rwrist 23.4648
rhand -21.2736 33.8276
rfingers 7.12502
rthumb 5.1102 3.90919
lclavicle -2.92276e-014 -3.10104e-014
lhumerus -22.9616 28.439 77.2168
lradius 7.66104
lwrist -25.2225
lhand -13.3991 46.3709
lfingers 7.12502
lthumb 12.7084 75.9642
rfemur -5.35235 1.13125 14.1326
rtibia 60.5511
rfoot 4.89836 11.924
rtoes 2.54415
lfemur -13.7054 7.17227 -29.3272
ltibia 25.1596
lfoot -18.1491 -5.18093
ltoes 1.72693
549
root 27.9436 16.3333 0.772236 221.617 95.604 221.148
lowerback -4.87062 -1.53175 -6.89452
upperback 0.295365 -1.55725 -1.5092
thorax 3.18756 -0.861985 2.18273
lowerneck -5.96908 0.709233 7.98904
upperneck 9.75296 0.529334 -3.12595
head 3.92236 0.413647 -2.2276
rclavicle -1.3654e-014 -2.34566e-014
rhumerus -32.9545 -24.4254 -77.3178
rradius 13.3613
rwrist 23.4051
rhand -21.0417 33.2679
rfingers 7.12502
rthumb 5.33409 3.35501
lclavicle -1.3654e-014 -2.34566e-014
lhumerus -22.2065 28.6833 77.4635
lradius 8.07681
lwrist -26.0995
lhand -12.888 46.7502
lfingers 7.12502
lthumb 13.2011 76.3122
rfemur -6.12013 0.993717 14.7675
rtibia 61.5248
rfoot 2.42087 10.6513
rtoes 3.72834
lfemur -13.1584 7.12653 -28.8221
ltibia 25.2455
lfoot -18.4044 -5.03581
ltoes 0.813998
550
root 28.0493 16.331 0.762283 225.421 95.5654 224.954
lowerback -5.03996 -1.68498 -7.25292
upperback 0.365408 -1.71709 -1.54075
thorax 3.38125 -0.953241 2.33029
lowerneck -6.0383 0.73099 7.97747
upperneck 9.75057 0.554113 -3.13652
head 3.93449 0.424034 -2.22768
rclavicle 1.95741e-014 5.1684e-015
rhumerus -33.4773 -26.3748 -76.1449
rradius 13.2274
rwrist 25.1449
rhand -21.0113 33.4909
rfingers 7.12502
rthumb 5.36345 3.57876
lclavicle 1.95741e-014 5.1684e-015
lhumerus -21.452 28.8584 77.7875
lradius 8.49894
lwrist -26.8632
lhand -12.5477 47.0201
lfingers 7.12502
lthumb 13.5292 76.5606
rfemur -7.06479 0.583701 14.5208
rtibia 62.4283
rfoot -0.211805 9.47977
rtoes 3.33543
lfemur -12.7652 7.15085 -29.1212
ltibia 25.3274
lfoot -19.0789 -5.04835
ltoes 1.1406
551
root 28.1491 16.3212 0.74346 228.609 95.4486 228.131
lowerback -5.19624 -1.84351 -7.34738
upperback 0.422636 -1.90266 -1.56141
thorax 3.5496 -1.05266 2.33937
lowerneck -6.52719 0.809022 7.78338
upperneck 10.3476 0.625772 -2.95524
head 4.20108 0.470714 -2.13876
rclavicle -1.38031e-014 -2.66371e-014
rhumerus -33.8449 -27.4965 -75.3863
rradius 13.0763
rwrist 26.1891
rhand -21.2132 34.1195
rfingers 7.12502
rthumb 5.16851 4.20256
lclavicle -1.38031e-014 -2.66371e-014
lhumerus -20.6671 29.0781 78.1401
lradius 8.91489
lwrist -27.5305
lhand -12.5253 46.571
lfingers 7.12502
lthumb 13.5508 76.11
rfemur -7.94225 0.0632941 14.2883
rtibia 63.0682
rfoot -2.76521 8.23618
rtoes 0.444064
lfemur -12.4709 7.2294 -29.3449
ltibia 25.574
lfoot -19.3661 -5.11407
ltoes -0.173489
552
root 28.2426 16.3136 0.728104 230.103 95.2859 229.467
lowerback -5.29823 -1.96085 -7.29283
upperback 0.361048 -2.05672 -1.5418
thorax 3.55627 -1.12698 2.31358
lowerneck -7.28575 0.915727 6.88766
upperneck 11.3207 0.690735 -1.81635
head 4.62497 0.549438 -1.63924
rclavicle -1.54493e-014 0
rhumerus -34.0011 -27.0135 -75.5594
rradius 13.2473
rwrist 25.4068
rhand -21.4465 33.86
rfingers 7.12502
rthumb 4.94323 3.93765
lclavicle -1.54493e-014 0
lhumerus -19.9824 29.2373 78.4035
lradius 9.4266
lwrist -28.0267
lhand -12.2259 46.2451
lfingers 7.12502
lthumb 13.8393 75.7647
rfemur -9.06172 -0.248276 14.3284
rtibia 63.5269
rfoot -4.45507 6.75284
rtoes -0.755801
lfemur -12.3814 7.30225 -29.3748
ltibia 25.8283
lfoot -19.9033 -5.22843
ltoes -0.165465
553
root 28.3262 16.3056 0.708484 230.07 94.8303 229.336
lowerback -5.09558 -2.05834 -6.86989
upperback 0.251556 -2.24414 -1.4427
thorax 3.33196 -1.20625 2.17369
lowerneck -7.10352 0.913153 6.76921
upperneck 11.1802 0.703486 -1.71716
head 4.55099 0.554573 -1.58843
rclavicle -2.06425e-014 -1.19271e-015
rhumerus -34.2169 -26.6216 -75.6261
rradius 13.4126
rwrist 24.5423
rhand -21.4995 33.496
rfingers 7.12502
rthumb 4.89208 3.57249
lclavicle -2.06425e-014 -1.19271e-015
lhumerus -19.4358 29.3251 78.6099
lradius 10.0331
lwrist -28.3626
lhand -12.1364 45.88
lfingers 7.12502
lthumb 13.9255 75.3937
rfemur -10.1274 -0.5269 14.7718
rtibia 63.6932
rfoot -5.15006 5.38691
rtoes -0.0154778
lfemur -12.3946 7.22366 -29.0504
ltibia 26.4142
lfoot -20.5273 -5.14479
ltoes -0.311284
554
root 28.4255 16.2958 0.737069 231.216 94.8633 230.437
lowerback -5.21244 -2.13802 -7.62303
upperback 0.208561 -2.2979 -1.30613
thorax 3.39547 -1.24713 2.72581
lowerneck -6.88474 0.867537 6.58025
upperneck 11.1633 0.661579 -1.53915
head 4.50616 0.537933 -1.50554
rclavicle -9.38015e-016 2.0276e-014
rhumerus -34.4149 -26.1986 -75.6946
rradius 13.5314
rwrist 23.6749
rhand -21.3766 33.3783
rfingers 7.12502
rthumb 5.0107 3.45755
lclavicle -9.38015e-016 2.0276e-014
lhumerus -18.4863 27.5374 79.639
lradius 10.4067
lwrist -26.8135
lhand -12.6049 45.5833
lfingers 7.12502
lthumb 13.474 75.1275
rfemur -11.173 -0.22124 15.1551
rtibia 63.8232
rfoot -5.72709 3.73246
rtoes 1.74439
lfemur -12.3792 7.2729 -28.9631
ltibia 26.9616
lfoot -21.0823 -5.01387
ltoes -0.503282
555
root 28.517 16.2859 0.744628 222.331 93.9287 221.914
lowerback -4.81378 -2.13239 -6.80044
upperback 0.334496 -2.39328 -0.948522
thorax 3.29095 -1.28901 2.64162
lowerneck -6.78006 0.819739 6.66464
upperneck 11.1212 0.610126 -1.66431
head 4.47396 0.508475 -1.56109
rclavicle 2.25683e-014 -1.98785e-014
rhumerus -34.3586 -25.6263 -75.9816
rradius 13.5504
rwrist 22.8317
rhand -21.4001 33.109
rfingers 7.12502
rthumb 4.98805 3.18766
lclavicle 2.25683e-014 -1.98785e-014
lhumerus -17.451 26.4015 80.4414
lradius 10.465
lwrist -26.0725
lhand -13.2302 44.7342
lfingers 7.12502
lthumb 12.8713 74.3173
rfemur -11.5475 -0.103914 16.7613
rtibia 63.7125
rfoot -7.04961 2.19868
rtoes 3.12728
lfemur -11.8448 7.14327 -27.605
ltibia 27.4526
lfoot -21.6141 -4.81346
ltoes -0.417367
556
root 28.6049 16.2741 0.74908 230.261 94.2111 229.532
lowerback -5.18149 -2.25864 -7.64065
upperback 0.354204 -2.46623 -1.06249
thorax 3.55943 -1.34464 2.97052
lowerneck -7.03661 0.860206 6.80933
upperneck 11.1144 0.639539 -1.7808
head 4.51699 0.519876 -1.61847
rclavicle 4.50868e-014 6.36111e-015
rhumerus -34.2002 -25.3221 -76.2383
rradius 13.5212
rwrist 22.4212
rhand -21.5811 33.2129
rfingers 7.12502
rthumb 4.81325 3.28755
lclavicle 4.50868e-014 6.36111e-015
lhumerus -16.2078 23.9083 81.5592
lradius 10.8742
lwrist -23.7338
lhand -13.2817 44.7769
lfingers 7.12502
lthumb 12.8216 74.3631
rfemur -12.8616 -0.327654 16.2811
rtibia 63.6835
rfoot -8.21114 1.2732
rtoes 1.81486
lfemur -12.0447 7.15894 -28.2537
ltibia 27.7973
lfoot -21.7618 -4.56575
ltoes -4.40074
557
root 28.6774 16.2579 0.704099 240.906 94.4377 239.999
lowerback -5.01797 -2.45362 -7.82631
upperback 0.2584 -2.71925 -1.33267
thorax 3.39128 -1.45996 2.77848
lowerneck -7.07489 0.893437 6.69826
upperneck 11.0867 0.680903 -1.67084
head 4.51607 0.54109 -1.56377
rclavicle 1.00635e-014 -1.23246e-014
rhumerus -34.3958 -25.0228 -76.3534
rradius 13.7819
rwrist 22.0701
rhand -21.4393 33.5399
rfingers 7.12502
rthumb 4.95014 3.61775
lclavicle 1.00635e-014 -1.23246e-014
lhumerus -15.3219 21.0499 82.595
lradius 11.7334
lwrist -20.6311
lhand -12.8141 45.4453
lfingers 7.12502
lthumb 13.2724 75.0027
rfemur -13.9562 -1.27725 15.2776
rtibia 63.4606
rfoot -9.94446 1.18986
rtoes 2.0096
lfemur -12.0513 7.15923 -29.1889
ltibia 28.1184
lfoot -22.7103 -5.05219
ltoes 0.00894725
